{
  "accessors": [
    {
      "bufferView": 1,
      "componentType": 5126,
      "count": 1366,
      "max": [
        5.4179801940917969,
        8.4918603897094727,
        19.562360763549805
      ],
      "min": [
        -5.4179801940917969,
        -18.021730422973633,
        0.49419000744819641
      ],
      "type": "VEC3"
    },
    {
      "bufferView": 1,
      "byteOffset": 16392,
      "componentType": 5126,
      "count": 1366,
      "max": [
        0.98235243558883667,
        0.99570596218109131,
        0.99807572364807129
      ],
      "min": [
        -0.98235243558883667,
        -0.99774819612503052,
        -0.99335843324661255
      ],
      "type": "VEC3"
    },
    {
      "bufferView": 0,
      "componentType": 5125,
      "count": 2022,
      "max": [
        1365
      ],
      "min": [
        0
      ],
      "type": "SCALAR"
    },
    {
      "bufferView": 1,
      "byteOffset": 32784,
      "componentType": 5126,
      "count": 120,
      "max": [
        5.3131098747253418,
        6.2501001358032227,
        0.49419000744819641
      ],
      "min": [
        -5.3131098747253418,
        -6.8586997985839844,
        -1
      ],
      "type": "VEC3"
    },
    {
      "bufferView": 1,
      "byteOffset": 34224,
      "componentType": 5126,
      "count": 120,
      "max": [
        0.96728503704071045,
        0.98385649919509888,
        0.24791017174720764
      ],
      "min": [
        -0.96728503704071045,
        -0.98385649919509888,
        -1
      ],
      "type": "VEC3"
    },
    {
      "bufferView": 0,
      "byteOffset": 8088,
      "componentType": 5125,
      "count": 192,
      "max": [
        119
      ],
      "min": [
        0
      ],
      "type": "SCALAR"
    },
    {
      "bufferView": 1,
      "byteOffset": 35664,
      "componentType": 5126,
      "count": 288,
      "max": [
        8.4106597900390625,
        -7.927760124206543,
        26.157480239868164
      ],
      "min": [
        -8.4106597900390625,
        -11.74878978729248,
        18.266450881958008
      ],
      "type": "VEC3"
    },
    {
      "bufferView": 1,
      "byteOffset": 39120,
      "componentType": 5126,
      "count": 288,
      "max": [
        0.97429656982421875,
        0.93247842788696289,
        0.92604285478591919
      ],
      "min": [
        -0.97429656982421875,
        -0.9367029070854187,
        -0.86342465877532959
      ],
      "type": "VEC3"
    },
    {
      "bufferView": 0,
      "byteOffset": 8856,
      "componentType": 5125,
      "count": 444,
      "max": [
        287
      ],
      "min": [
        0
      ],
      "type": "SCALAR"
    }
  ],
  "asset": {
    "extras": {
      "author": "Marcel (https://sketchfab.com/marcelschweiger)",
      "license": "CC-BY-4.0 (http://creativecommons.org/licenses/by/4.0/)",
      "source": "https://sketchfab.com/3d-models/deer-low-poly-e2f1c33deff644488e436601fae278c0",
      "title": "Deer [Low-Poly]"
    },
    "generator": "Sketchfab-6.22.0",
    "version": "2.0"
  },
  "bufferViews": [
    {
      "buffer": 0,
      "byteLength": 10632,
      "byteOffset": 0,
      "name": "floatBufferViews",
      "target": 34963
    },
    {
      "buffer": 0,
      "byteLength": 42576,
      "byteOffset": 10632,
      "byteStride": 12,
      "name": "floatBufferViews",
      "target": 34962
    }
  ],
  "buffers": [
    {
      "byteLength": 53208,
      "uri": "scene.bin"
    }
  ],
  "materials": [
    {
      "doubleSided": true,
      "emissiveFactor": [
        0,
        0,
        0
      ],
      "name": "Body",
      "pbrMetallicRoughness": {
        "baseColorFactor": [
          0.219186894888,
          0.061674101658000004,
          0.034096235628000002,
          1
        ],
        "metallicFactor": 0,
        "roughnessFactor": 0.59999999999999998
      }
    },
    {
      "doubleSided": true,
      "emissiveFactor": [
        0,
        0,
        0
      ],
      "name": "Hooves",
      "pbrMetallicRoughness": {
        "baseColorFactor": [
          0.010728322159583791,
          0.010728322159583791,
          0.010728322159583791,
          1
        ],
        "metallicFactor": 0,
        "roughnessFactor": 0.59999999999999998
      }
    },
    {
      "doubleSided": true,
      "emissiveFactor": [
        0,
        0,
        0
      ],
      "name": "Horns",
      "pbrMetallicRoughness": {
        "baseColorFactor": [
          0.5,
          0.5,
          0.5,
          1
        ],
        "metallicFactor": 0,
        "roughnessFactor": 0.59999999999999998
      }
    }
  ],
  "meshes": [
    {
      "name": "Cube_0",
      "primitives": [
        {
          "attributes": {
            "NORMAL": 1,
            "POSITION": 0
          },
          "indices": 2,
          "material": 0,
          "mode": 4
        }
      ]
    },
    {
      "name": "Cube_1",
      "primitives": [
        {
          "attributes": {
            "NORMAL": 4,
            "POSITION": 3
          },
          "indices": 5,
          "material": 1,
          "mode": 4
        }
      ]
    },
    {
      "name": "Cube_2",
      "primitives": [
        {
          "attributes": {
            "NORMAL": 7,
            "POSITION": 6
          },
          "indices": 8,
          "material": 2,
          "mode": 4
        }
      ]
    }
  ],
  "nodes": [
    {
      "children": [
        1
      ],
      "name": "RootNode (gltf orientation matrix)",
      "rotation": [
        -0.70710678118654746,
        -0,
        -0,
        0.70710678118654757
      ]
    },
    {
      "children": [
        2
      ],
      "name": "RootNode (model correction matrix)"
    },
    {
      "children": [
        3,
        7
      ],
      "name": "Root"
    },
    {
      "children": [
        4,
        5,
        6
      ],
      "matrix": [
        0.20772000000000002,
        0,
        0,
        0,
        0,
        0.22647000000000003,
        0,
        0,
        0,
        0,
        0.24937000000000001,
        0,
        -0,
        0,
        0.25,
        1
      ],
      "name": "Cube"
    },
    {
      "mesh": 0,
      "name": "Cube_0"
    },
    {
      "mesh": 1,
      "name": "Cube_1"
    },
    {
      "mesh": 2,
      "name": "Cube_2"
    },
    {
      "children": [
        8
      ],
      "matrix": [
        0.74868000000000012,
        0.29172999999999999,
        -0.5952900000000001,
        0,
        0.20477000000000001,
        0.75230000000000008,
        0.62619000000000014,
        0,
        0.63051000000000001,
        -0.59072000000000013,
        0.50348999999999999,
        0,
        14.929130000000001,
        -14.40042,
        18.72505,
        1
      ],
      "name": "Sun"
    },
    {
      "name": "Sun"
    }
  ],
  "scene": 0,
  "scenes": [
    {
      "name": "OSG_Scene",
      "nodes": [
        0
      ]
    }
  ]
}

