{"buffers":[{"uri":"scene2.bin","byteLength":7269432}],"asset":{"version":"2.0","generator":"gltfpack 0.15","extras":{"author":"Axt (https://sketchfab.com/shooter24994)","license":"CC-BY-4.0 (http://creativecommons.org/licenses/by/4.0/)","source":"https://sketchfab.com/3d-models/cake-39305f294ada4bd69146ccd1bb5ab792","title":"Cake"}},"extensionsUsed":["KHR_mesh_quantization"],"extensionsRequired":["KHR_mesh_quantization"],"bufferViews":[{"buffer":0,"byteOffset":0,"byteLength":886760,"byteStride":4,"target":34962},{"buffer":0,"byteOffset":886760,"byteLength":1773520,"byteStride":8,"target":34962},{"buffer":0,"byteOffset":2660280,"byteLength":600192,"target":34963},{"buffer":0,"byteOffset":3260472,"byteLength":4008960,"target":34963}],"accessors":[{"bufferView":0,"byteOffset":0,"componentType":5120,"count":128,"type":"VEC3","normalized":true},{"bufferView":1,"byteOffset":0,"componentType":5123,"count":128,"type":"VEC3","min":[0,0,0],"max":[16383,428,16383]},{"bufferView":2,"byteOffset":0,"componentType":5123,"count":756,"type":"SCALAR"},{"bufferView":0,"byteOffset":512,"componentType":5120,"count":128,"type":"VEC3","normalized":true},{"bufferView":1,"byteOffset":1024,"componentType":5123,"count":128,"type":"VEC3","min":[1670,274,1670],"max":[14713,13357,14713]},{"bufferView":2,"byteOffset":1512,"componentType":5123,"count":744,"type":"SCALAR"},{"bufferView":0,"byteOffset":1024,"componentType":5120,"count":64,"type":"VEC3","normalized":true},{"bufferView":1,"byteOffset":2048,"componentType":5123,"count":64,"type":"VEC3","min":[3488,4244,3232],"max":[14203,9452,13151]},{"bufferView":2,"byteOffset":3000,"componentType":5123,"count":372,"type":"SCALAR"},{"bufferView":0,"byteOffset":1280,"componentType":5120,"count":167736,"type":"VEC3","normalized":true},{"bufferView":1,"byteOffset":2560,"componentType":5123,"count":167736,"type":"VEC3","min":[225,314,126],"max":[16210,10050,16264]},{"bufferView":3,"byteOffset":0,"componentType":5125,"count":1002240,"type":"SCALAR"},{"bufferView":0,"byteOffset":672224,"componentType":5120,"count":4224,"type":"VEC3","normalized":true},{"bufferView":1,"byteOffset":1344448,"componentType":5123,"count":4224,"type":"VEC3","min":[6201,11274,5147],"max":[12718,14983,11343]},{"bufferView":2,"byteOffset":3744,"componentType":5123,"count":14904,"type":"SCALAR"},{"bufferView":0,"byteOffset":689120,"componentType":5120,"count":3072,"type":"VEC3","normalized":true},{"bufferView":1,"byteOffset":1378240,"componentType":5123,"count":3072,"type":"VEC3","min":[6201,11550,5147],"max":[12718,14754,11343]},{"bufferView":2,"byteOffset":33552,"componentType":5123,"count":9216,"type":"SCALAR"},{"bufferView":0,"byteOffset":701408,"componentType":5120,"count":1152,"type":"VEC3","normalized":true},{"bufferView":1,"byteOffset":1402816,"componentType":5123,"count":1152,"type":"VEC3","min":[6219,13509,5166],"max":[12700,15102,11325]},{"bufferView":2,"byteOffset":51984,"componentType":5123,"count":4608,"type":"SCALAR"},{"bufferView":0,"byteOffset":706016,"componentType":5120,"count":768,"type":"VEC3","normalized":true},{"bufferView":1,"byteOffset":1412032,"componentType":5123,"count":768,"type":"VEC3","min":[6219,13628,5166],"max":[12700,15551,11325]},{"bufferView":2,"byteOffset":61200,"componentType":5123,"count":3384,"type":"SCALAR"},{"bufferView":0,"byteOffset":709088,"componentType":5120,"count":29958,"type":"VEC3","normalized":true},{"bufferView":1,"byteOffset":1418176,"componentType":5123,"count":29958,"type":"VEC3","min":[1702,95,1448],"max":[14813,13628,14935]},{"bufferView":2,"byteOffset":67968,"componentType":5123,"count":179712,"type":"SCALAR"},{"bufferView":0,"byteOffset":828920,"componentType":5120,"count":1928,"type":"VEC3","normalized":true},{"bufferView":1,"byteOffset":1657840,"componentType":5123,"count":1928,"type":"VEC3","min":[2197,4428,9222],"max":[13957,9860,11656]},{"bufferView":2,"byteOffset":427392,"componentType":5123,"count":11520,"type":"SCALAR"},{"bufferView":0,"byteOffset":836632,"componentType":5120,"count":2892,"type":"VEC3","normalized":true},{"bufferView":1,"byteOffset":1673264,"componentType":5123,"count":2892,"type":"VEC3","min":[2187,5050,2296],"max":[11710,9756,14127]},{"bufferView":2,"byteOffset":450432,"componentType":5123,"count":17280,"type":"SCALAR"},{"bufferView":0,"byteOffset":848200,"componentType":5120,"count":2892,"type":"VEC3","normalized":true},{"bufferView":1,"byteOffset":1696400,"componentType":5123,"count":2892,"type":"VEC3","min":[4115,4236,3021],"max":[14800,9886,13385]},{"bufferView":2,"byteOffset":484992,"componentType":5123,"count":17280,"type":"SCALAR"},{"bufferView":0,"byteOffset":859768,"componentType":5120,"count":2892,"type":"VEC3","normalized":true},{"bufferView":1,"byteOffset":1719536,"componentType":5123,"count":2892,"type":"VEC3","min":[7305,4454,1678],"max":[14098,9837,14819]},{"bufferView":2,"byteOffset":519552,"componentType":5123,"count":17280,"type":"SCALAR"},{"bufferView":0,"byteOffset":871336,"componentType":5120,"count":3856,"type":"VEC3","normalized":true},{"bufferView":1,"byteOffset":1742672,"componentType":5123,"count":3856,"type":"VEC3","min":[7566,12138,6137],"max":[11524,13907,10084]},{"bufferView":2,"byteOffset":554112,"componentType":5123,"count":23040,"type":"SCALAR"}],"materials":[{"name":"stand","pbrMetallicRoughness":{"baseColorFactor":[0.281008989,0.00739252008,0,1],"metallicFactor":0,"roughnessFactor":0.98545891},"doubleSided":true},{"name":"first","pbrMetallicRoughness":{"baseColorFactor":[1,0.141262993,0.456411004,1],"metallicFactor":0,"roughnessFactor":0.922501445},"doubleSided":true},{"name":"second","pbrMetallicRoughness":{"baseColorFactor":[1,0.699352026,0.585653007,1],"metallicFactor":0,"roughnessFactor":0.831163287},"doubleSided":true},{"name":"mala_1","pbrMetallicRoughness":{"baseColorFactor":[0.937246978,0.933512986,1,1],"metallicFactor":0,"roughnessFactor":0.79000926},"doubleSided":true},{"name":"candle","pbrMetallicRoughness":{"baseColorFactor":[0.715722978,0.720749021,0.800000012,1],"metallicFactor":0,"roughnessFactor":0.5},"doubleSided":true},{"name":"candle2","pbrMetallicRoughness":{"baseColorFactor":[0.0197416004,0,0.800000012,1],"metallicFactor":0,"roughnessFactor":0.986145973},"doubleSided":true},{"name":"black","pbrMetallicRoughness":{"baseColorFactor":[0,0,0,1],"metallicFactor":0},"doubleSided":true},{"name":"yellow","pbrMetallicRoughness":{"baseColorFactor":[0.800000012,0.480080009,0,1],"metallicFactor":0,"roughnessFactor":0.885192871},"emissiveFactor":[1,0.474317014,0],"doubleSided":true},{"name":"topping1","pbrMetallicRoughness":{"baseColorFactor":[0.215860993,0,0,1],"metallicFactor":0,"roughnessFactor":0.566597641},"doubleSided":true},{"name":"blue","pbrMetallicRoughness":{"baseColorFactor":[0.0129073998,0.0505336002,0.800000012,1],"metallicFactor":0,"roughnessFactor":0.5},"doubleSided":true},{"name":"orange","pbrMetallicRoughness":{"baseColorFactor":[1,0.376262009,0,1],"metallicFactor":0,"roughnessFactor":0.5},"doubleSided":true},{"name":"material","pbrMetallicRoughness":{"baseColorFactor":[0.800000012,0.00465598982,0,1],"metallicFactor":0,"roughnessFactor":0.5},"doubleSided":true},{"name":"dpink","pbrMetallicRoughness":{"baseColorFactor":[0.800000012,0,0.261418015,1],"metallicFactor":0,"roughnessFactor":0.5},"doubleSided":true},{"name":"choco","pbrMetallicRoughness":{"baseColorFactor":[0.207912996,0.0144288996,0.0144288996,1],"metallicFactor":0,"roughnessFactor":0},"doubleSided":true}],"meshes":[{"primitives":[{"attributes":{"NORMAL":0,"POSITION":1},"mode":4,"indices":2,"material":0},{"attributes":{"NORMAL":3,"POSITION":4},"mode":4,"indices":5,"material":1},{"attributes":{"NORMAL":6,"POSITION":7},"mode":4,"indices":8,"material":2},{"attributes":{"NORMAL":9,"POSITION":10},"mode":4,"indices":11,"material":3},{"attributes":{"NORMAL":12,"POSITION":13},"mode":4,"indices":14,"material":4},{"attributes":{"NORMAL":15,"POSITION":16},"mode":4,"indices":17,"material":5},{"attributes":{"NORMAL":18,"POSITION":19},"mode":4,"indices":20,"material":6},{"attributes":{"NORMAL":21,"POSITION":22},"mode":4,"indices":23,"material":7},{"attributes":{"NORMAL":24,"POSITION":25},"mode":4,"indices":26,"material":8},{"attributes":{"NORMAL":27,"POSITION":28},"mode":4,"indices":29,"material":9},{"attributes":{"NORMAL":30,"POSITION":31},"mode":4,"indices":32,"material":10},{"attributes":{"NORMAL":33,"POSITION":34},"mode":4,"indices":35,"material":11},{"attributes":{"NORMAL":36,"POSITION":37},"mode":4,"indices":38,"material":12},{"attributes":{"NORMAL":39,"POSITION":40},"mode":4,"indices":41,"material":13}]}],"nodes":[{"mesh":0,"translation":[-100,-1.03316015e-05,-99.9999924],"scale":[0.0122077763,0.0122077763,0.0122077763]}],"scenes":[{"name":"OSG_Scene","nodes":[0]}],"scene":0}