{"buffers":[{"uri":"scene2.bin","byteLength":120984}],"asset":{"version":"2.0","generator":"gltfpack 0.15","extras":{"author":"Nekupaska (https://sketchfab.com/nekubaba213)","license":"CC-BY-NC-4.0 (http://creativecommons.org/licenses/by-nc/4.0/)","source":"https://sketchfab.com/3d-models/katamari-ball-7f6c53f7fe104c37884d1559e553cb3f","title":"Katamari Ball"}},"extensionsUsed":["KHR_mesh_quantization"],"extensionsRequired":["KHR_mesh_quantization"],"bufferViews":[{"buffer":0,"byteOffset":0,"byteLength":22568,"byteStride":4,"target":34962},{"buffer":0,"byteOffset":22568,"byteLength":45136,"byteStride":8,"target":34962},{"buffer":0,"byteOffset":67704,"byteLength":53280,"target":34963}],"accessors":[{"bufferView":0,"byteOffset":0,"componentType":5120,"count":1550,"type":"VEC3","normalized":true},{"bufferView":1,"byteOffset":0,"componentType":5123,"count":1550,"type":"VEC3","min":[1181,2191,989],"max":[13911,14192,13574]},{"bufferView":2,"byteOffset":0,"componentType":5123,"count":7200,"type":"SCALAR"},{"bufferView":0,"byteOffset":6200,"componentType":5120,"count":492,"type":"VEC3","normalized":true},{"bufferView":1,"byteOffset":12400,"componentType":5123,"count":492,"type":"VEC3","min":[48,0,84],"max":[15044,16383,14478]},{"bufferView":2,"byteOffset":14400,"componentType":5123,"count":2160,"type":"SCALAR"},{"bufferView":0,"byteOffset":8168,"componentType":5120,"count":1200,"type":"VEC3","normalized":true},{"bufferView":1,"byteOffset":16336,"componentType":5123,"count":1200,"type":"VEC3","min":[610,1436,470],"max":[14483,14947,14092]},{"bufferView":2,"byteOffset":18720,"componentType":5123,"count":5760,"type":"SCALAR"},{"bufferView":0,"byteOffset":12968,"componentType":5120,"count":1200,"type":"VEC3","normalized":true},{"bufferView":1,"byteOffset":25936,"componentType":5123,"count":1200,"type":"VEC3","min":[111,572,64],"max":[14981,15811,14498]},{"bufferView":2,"byteOffset":30240,"componentType":5123,"count":5760,"type":"SCALAR"},{"bufferView":0,"byteOffset":17768,"componentType":5120,"count":1200,"type":"VEC3","normalized":true},{"bufferView":1,"byteOffset":35536,"componentType":5123,"count":1200,"type":"VEC3","min":[0,139,0],"max":[15093,16244,14562]},{"bufferView":2,"byteOffset":41760,"componentType":5123,"count":5760,"type":"SCALAR"}],"materials":[{"name":"base_color.001","pbrMetallicRoughness":{"baseColorFactor":[0.229953006,0.467263013,0.0236450005,1],"metallicFactor":0,"roughnessFactor":0.627148807},"doubleSided":true},{"name":"tip.001","pbrMetallicRoughness":{"baseColorFactor":[0,0.229953006,0.044902999,1],"metallicFactor":0,"roughnessFactor":0.843491554},"doubleSided":true},{"name":"tip_around.001","pbrMetallicRoughness":{"baseColorFactor":[0.124741003,0.397545993,0.034988001,1],"metallicFactor":0,"roughnessFactor":0.843491554},"doubleSided":true},{"name":"tip_around_light.001","pbrMetallicRoughness":{"baseColorFactor":[0.42662099,0.566700995,0.0148,1],"metallicFactor":0,"roughnessFactor":0.843491554},"doubleSided":true},{"name":"tippy.001","pbrMetallicRoughness":{"baseColorFactor":[0.800000012,0.778756022,0.521125019,1],"metallicFactor":0,"roughnessFactor":0.843491554},"doubleSided":true}],"meshes":[{"primitives":[{"attributes":{"NORMAL":0,"POSITION":1},"mode":4,"indices":2,"material":0},{"attributes":{"NORMAL":3,"POSITION":4},"mode":4,"indices":5,"material":1},{"attributes":{"NORMAL":6,"POSITION":7},"mode":4,"indices":8,"material":2},{"attributes":{"NORMAL":9,"POSITION":10},"mode":4,"indices":11,"material":3},{"attributes":{"NORMAL":12,"POSITION":13},"mode":4,"indices":14,"material":4}]}],"nodes":[{"mesh":0,"translation":[-1.14375806,-1.24155283,-1.10356688],"scale":[0.000151565997,0.000151565997,0.000151565997]}],"scenes":[{"name":"OSG_Scene","nodes":[0]}],"scene":0}