{
  "accessors": [
    {
      "bufferView": 2,
      "componentType": 5126,
      "count": 491,
      "max": [
        2.7895550727844238,
        2.2725169658660889,
        2.559999942779541
      ],
      "min": [
        -2.7905778884887695,
        -2.2768979072570801,
        -1.6375830173492432
      ],
      "type": "VEC3"
    },
    {
      "bufferView": 2,
      "byteOffset": 5892,
      "componentType": 5126,
      "count": 491,
      "max": [
        1,
        1,
        1
      ],
      "min": [
        -1,
        -1,
        -1
      ],
      "type": "VEC3"
    },
    {
      "bufferView": 3,
      "componentType": 5126,
      "count": 491,
      "max": [
        1,
        1,
        1,
        1
      ],
      "min": [
        -1,
        -1,
        -1,
        -1
      ],
      "type": "VEC4"
    },
    {
      "bufferView": 1,
      "componentType": 5126,
      "count": 491,
      "max": [
        2.9984900951385498,
        2.3544108867645264
      ],
      "min": [
        -2.0015099048614502,
        -1.5711020231246948
      ],
      "type": "VEC2"
    },
    {
      "bufferView": 0,
      "componentType": 5125,
      "count": 885,
      "max": [
        490
      ],
      "min": [
        0
      ],
      "type": "SCALAR"
    },
    {
      "bufferView": 2,
      "byteOffset": 11784,
      "componentType": 5126,
      "count": 598,
      "max": [
        3.4897830486297607,
        2.4000000953674316,
        2.5762059688568115
      ],
      "min": [
        -2.7999999523162842,
        -2.4000000953674316,
        -1.6375830173492432
      ],
      "type": "VEC3"
    },
    {
      "bufferView": 2,
      "byteOffset": 18960,
      "componentType": 5126,
      "count": 598,
      "max": [
        1,
        1,
        1
      ],
      "min": [
        -1,
        -1,
        -1
      ],
      "type": "VEC3"
    },
    {
      "bufferView": 3,
      "byteOffset": 7856,
      "componentType": 5126,
      "count": 598,
      "max": [
        1,
        1,
        1,
        1
      ],
      "min": [
        -1,
        -1,
        -1,
        -1
      ],
      "type": "VEC4"
    },
    {
      "bufferView": 1,
      "byteOffset": 3928,
      "componentType": 5126,
      "count": 598,
      "max": [
        1.0802329778671265,
        3.3965549468994141
      ],
      "min": [
        -2.0880138874053955,
        -2.5220599174499512
      ],
      "type": "VEC2"
    },
    {
      "bufferView": 0,
      "byteOffset": 3540,
      "componentType": 5125,
      "count": 978,
      "max": [
        597
      ],
      "min": [
        0
      ],
      "type": "SCALAR"
    }
  ],
  "asset": {
    "extras": {
      "author": "Avelina (https://sketchfab.com/avelina.99)",
      "license": "CC-BY-4.0 (http://creativecommons.org/licenses/by/4.0/)",
      "source": "https://sketchfab.com/3d-models/barn-49f82e27a46b4a5ba03d3eae4626c371",
      "title": "Barn"
    },
    "generator": "Sketchfab-8.33.0",
    "version": "2.0"
  },
  "bufferViews": [
    {
      "buffer": 0,
      "byteLength": 7452,
      "byteOffset": 0,
      "name": "floatBufferViews",
      "target": 34963
    },
    {
      "buffer": 0,
      "byteLength": 8712,
      "byteOffset": 7452,
      "byteStride": 8,
      "name": "floatBufferViews",
      "target": 34962
    },
    {
      "buffer": 0,
      "byteLength": 26136,
      "byteOffset": 16164,
      "byteStride": 12,
      "name": "floatBufferViews",
      "target": 34962
    },
    {
      "buffer": 0,
      "byteLength": 17424,
      "byteOffset": 42300,
      "byteStride": 16,
      "name": "floatBufferViews",
      "target": 34962
    }
  ],
  "buffers": [
    {
      "byteLength": 59724,
      "uri": "scene.bin"
    }
  ],
  "images": [
    {
      "uri": "textures/main_baseColor.jpeg"
    },
    {
      "uri": "textures/main_metallicRoughness.png"
    },
    {
      "uri": "textures/main_normal.jpeg"
    },
    {
      "uri": "textures/planks_baseColor.jpeg"
    },
    {
      "uri": "textures/planks_metallicRoughness.png"
    },
    {
      "uri": "textures/planks_normal.jpeg"
    }
  ],
  "materials": [
    {
      "doubleSided": true,
      "name": "main",
      "normalTexture": {
        "index": 2,
        "scale": 1,
        "texCoord": 0
      },
      "occlusionTexture": {
        "index": 1,
        "strength": 1,
        "texCoord": 0
      },
      "pbrMetallicRoughness": {
        "baseColorFactor": [
          1,
          1,
          1,
          1
        ],
        "baseColorTexture": {
          "index": 0,
          "texCoord": 0
        },
        "metallicFactor": 0,
        "metallicRoughnessTexture": {
          "index": 1,
          "texCoord": 0
        },
        "roughnessFactor": 1
      }
    },
    {
      "doubleSided": true,
      "name": "planks",
      "normalTexture": {
        "index": 5,
        "scale": 1,
        "texCoord": 0
      },
      "occlusionTexture": {
        "index": 4,
        "strength": 1,
        "texCoord": 0
      },
      "pbrMetallicRoughness": {
        "baseColorFactor": [
          1,
          1,
          1,
          1
        ],
        "baseColorTexture": {
          "index": 3,
          "texCoord": 0
        },
        "metallicFactor": 0,
        "metallicRoughnessTexture": {
          "index": 4,
          "texCoord": 0
        },
        "roughnessFactor": 1
      }
    }
  ],
  "meshes": [
    {
      "primitives": [
        {
          "attributes": {
            "NORMAL": 1,
            "POSITION": 0,
            "TANGENT": 2,
            "TEXCOORD_0": 3
          },
          "indices": 4,
          "material": 0,
          "mode": 4
        }
      ]
    },
    {
      "primitives": [
        {
          "attributes": {
            "NORMAL": 6,
            "POSITION": 5,
            "TANGENT": 7,
            "TEXCOORD_0": 8
          },
          "indices": 9,
          "material": 1,
          "mode": 4
        }
      ]
    }
  ],
  "nodes": [
    {
      "children": [
        1
      ],
      "name": "RootNode (gltf orientation matrix)",
      "rotation": [
        -0.70710678118654746,
        -0,
        -0,
        0.70710678118654757
      ]
    },
    {
      "children": [
        2
      ],
      "name": "RootNode (model correction matrix)"
    },
    {
      "children": [
        3,
        4
      ],
      "name": "barn.obj.cleaner.materialmerger.gles"
    },
    {
      "mesh": 0,
      "name": ""
    },
    {
      "mesh": 1,
      "name": ""
    }
  ],
  "samplers": [
    {
      "magFilter": 9729,
      "minFilter": 9987,
      "wrapS": 10497,
      "wrapT": 10497
    }
  ],
  "scene": 0,
  "scenes": [
    {
      "name": "OSG_Scene",
      "nodes": [
        0
      ]
    }
  ],
  "textures": [
    {
      "sampler": 0,
      "source": 0
    },
    {
      "sampler": 0,
      "source": 1
    },
    {
      "sampler": 0,
      "source": 2
    },
    {
      "sampler": 0,
      "source": 3
    },
    {
      "sampler": 0,
      "source": 4
    },
    {
      "sampler": 0,
      "source": 5
    }
  ]
}

